<svg xmlns="http://www.w3.org/2000/svg" xmlns:xlink="http://www.w3.org/1999/xlink" xmlns:lucid="lucid" width="1612.47" height="1185"><g transform="translate(251.925 220)" lucid:page-tab-id="0_0"><path d="M-1296-1696h2656v3456h-2656z" fill="#fff"/><path d="M1325 430c0 8.28-6.72 15-15 15-8.28 0-15-6.72-15-15 0-8.28 6.72-15 15-15 8.28 0 15 6.72 15 15z" stroke="#000" stroke-width="2"/><path d="M1310 445v52.8l30 55.2m-30-55.2l-30 55.2m0-93h60" stroke="#000" stroke-width="2" fill="none"/><path d="M1280 415h60v160h-60z" fill="none"/><use xlink:href="#a" transform="matrix(1,0,0,1,1200,553) translate(81.55 14.6)"/><path d="M1310 495h-148M1309.97 495h4.03" stroke="#000" stroke-width="2" fill="none"/><path d="M1162.03 496h-1.07l.04-1-.03-1h1.06zM1018 496h-9.77v-2h9.76zm-19.54 0h-19.53v-2h19.53zm-29.3 0h-19.52v-2h19.53zm-29.3 0h-19.52v-2h19.53zm-29.28 0h-19.53v-2h19.53zm-29.3 0h-19.52v-2h19.53zm-29.3 0h-19.52v-2H852zm-29.28 0h-19.53v-2h19.53zm-29.3 0h-19.53v-2h19.53zm-146.47 0H627.4v-2h19.53zm-29.3 0h-19.52v-2h19.54zm-29.28 0h-19.53v-2h19.53zm-29.3 0h-19.53v-2h19.53zm-29.3 0h-19.52v-2h19.53zm-29.28 0h-19.53v-2h19.53zm-29.3 0h-19.53v-2h19.53zm-29.3 0h-19.52v-2h19.53zm-29.3 0h-9.75v-2h9.76z"/><path d="M1019 495l.03 1h-1.07v-2h1.08zM420.7 485.68L404.92 495l15.76 9.32-1.03 1.72L401 495l18.67-11.04z"/><use xlink:href="#b" transform="matrix(1,0,0,1,648.5453650557231,484.20000000000005) translate(0 14.4)"/><path d="M125 415c0 8.28-6.72 15-15 15-8.28 0-15-6.72-15-15 0-8.28 6.72-15 15-15 8.28 0 15 6.72 15 15z" stroke="#000" stroke-width="2" fill="#fff"/><path d="M110 430v52.8l30 55.2m-30-55.2L80 538m0-93h60" stroke="#000" stroke-width="2" fill="none"/><path d="M80 400h60v160H80z" fill="none"/><use xlink:href="#c" transform="matrix(1,0,0,1,0,538) translate(71.07499999999999 14.6)"/><path d="M1160 495c0 30.38-31.34 55-70 55s-70-24.62-70-55 31.34-55 70-55 70 24.62 70 55z" stroke="#000" stroke-width="2"/><use xlink:href="#d" transform="matrix(1,0,0,1,1020,440) translate(16.57999999999999 48.775)"/><use xlink:href="#e" transform="matrix(1,0,0,1,1020,440) translate(48.029999999999994 70.375)"/><path d="M400 495c0 30.38-31.34 55-70 55s-70-24.62-70-55 31.34-55 70-55 70 24.62 70 55z" stroke="#000" stroke-width="2" fill="#fff"/><use xlink:href="#f" transform="matrix(1,0,0,1,260,440) translate(48.029999999999994 48.775)"/><use xlink:href="#g" transform="matrix(1,0,0,1,260,440) translate(24.60499999999999 70.375)"/><path d="M112 480.07l146.3 10.04M112.02 480.07l-4-.28" stroke="#000" stroke-width="2" fill="none"/><path d="M259.4 489.18l-.22 2-.98-.07.13-2z"/><path d="M700 625c0 27.6-31.34 50-70 50s-70-22.4-70-50 31.34-50 70-50 70 22.4 70 50z" stroke="#000" stroke-width="2" fill="#fff"/><use xlink:href="#h" transform="matrix(1,0,0,1,560,575) translate(30.554999999999996 42.525)"/><use xlink:href="#i" transform="matrix(1,0,0,1,560,575) translate(33.58 64.125)"/><path d="M833.3 624.56v2l-20.2-.1v-2zm-30.3-.13v2l-20.2-.08v-2zm-30.3-.13v2l-20.2-.08v-2zm79.58 1.45l-8.83.55-.12-2 8.95-.55zm-109.87-1.57v2l-20.2-.1v-2zm-30.3-.13v2L702 626v-2zm239.95-19.8l-4.88 2.06h-5.55l3.35-1.24 6.3-2.65zm27.02-14l-1.07.67-7.7 4.44-7.9 4.13-1.14.53-.85-1.8 1.12-.53 7.82-4.1 7.63-4.4 1.02-.65zm24.7-17.7l-3.37 2.78-7.4 5.62-5.43 3.77-1.14-1.64 5.4-3.75 7.33-5.57 3.34-2.76zm22.18-20.8l-3.2 3.4-7.5 7.36-3.8 3.42-1.33-1.5 3.75-3.37 7.46-7.3 3.16-3.38zm13.4-15.2l-1.08 1.33-5.5 6.37-1.5-1.3 5.47-6.35 1.07-1.32z"/><path d="M702.03 624v2h-1.07l.04-1-.03-1zM1036.03 555.88l-1.97-.34 3.13-18.04-17.33 5.95-.65-1.9 20.5-7.04z"/><use xlink:href="#j" transform="matrix(1,0,0,1,852.2823810825627,606.3051356045382) translate(0 14.4)"/><path d="M557.2 623.96l-.04 2-9.9-.2.03-2zm-27.78-1.13l8 .5-.12 2-8.04-.5-11.75-1.23.2-2zm-40.1-6.55l8.58 2 9.38 1.8.66.1-.3 1.97-.7-.1-9.45-1.8-8.67-2.03-.7-.2.5-1.8h.52zm-53.77-23.62l3.1 1.97h-3.73l-.47-.3-.72-.5 1.14-1.64zm-23.64-18.82l5.97 5.37 5.9 4.9 3.08 2.33-1.2 1.6-3.12-2.37-5.97-4.93-6.02-5.43-.15-.14 1.4-1.43zm-18.76-20.08l6.46 7.5 5.18 5.52-1.45 1.36-5.22-5.55-6.5-7.56-1.45-1.82 1.57-1.25zm-7.5-9.56l-1.63 1.18-5.8-8.03 1.6-1.17z"/><path d="M379.82 536.2l-1.62 1.17-.6-.85 1.26-.88.35-.28zM559 625l-18.9 10.66-.97-1.74 15.94-9-15.57-9.64 1.06-1.7z"/><use xlink:href="#k" transform="matrix(1,0,0,1,401.7175083523177,594.6290852150149) translate(0 14.4)"/><path d="M700 390c0 27.6-31.34 50-70 50s-70-22.4-70-50 31.34-50 70-50 70 22.4 70 50z" stroke="#000" stroke-width="2" fill="#fff"/><use xlink:href="#l" transform="matrix(1,0,0,1,560,340) translate(48.55499999999999 39.4)"/><use xlink:href="#m" transform="matrix(1,0,0,1,560,340) translate(53.55499999999999 39.4)"/><use xlink:href="#n" transform="matrix(1,0,0,1,560,340) translate(13.079999999999993 61)"/><use xlink:href="#o" transform="matrix(1,0,0,1,560,340) translate(88.98 61)"/><path d="M386.57 447.35l-1.02 1.12-5.03 5.97-1.53-1.3 5.04-6 1.05-1.14zm20.1-19.3l-.15.1-5.1 4.32-5.15 4.77-3.32 3.33-1.42-1.4 3.35-3.38 5.23-4.82 5.16-4.37.18-.13zm23.2-15.4l-2.97 1.6-5.17 3.06-5.1 3.33-2.53 1.8-1.16-1.63 2.56-1.83 5.17-3.36 5.25-3.1 3-1.62zm108.63-21.4l-18.7.56-.06-1.98 18.7-.57zm18.7-.24l-9.37.06v-2l9.35-.05z"/><path d="M380.54 454.42l-.65.77-1-.82-.6-.4.7-.85zM559 390l-18.6 11.15-1.04-1.72 15.7-9.4-15.8-9.24 1-1.74z"/><use xlink:href="#k" transform="matrix(1,0,0,1,405.64810446561506,388.6672097873304) translate(0 14.4)"/><path d="M-175.25 394.75c0 8.15-6.6 14.75-14.75 14.75s-14.75-6.6-14.75-14.75S-198.15 380-190 380s14.75 6.6 14.75 14.75z" stroke="#000" stroke-width="2" fill="#fff"/><path d="M-190 409.5v41.3l30 47.2m-30-47.2l-30 47.2m0-73.75h60" stroke="#000" stroke-width="2" fill="none"/><path d="M-220 380h60v140h-60z" fill="none"/><use xlink:href="#p" transform="matrix(1,0,0,1,-300,498) translate(69.07499999999999 14.6)"/><path d="M-188.35 450.76l206.7 243.48M-188.34 450.78l-2.6-3.07" stroke="#000" stroke-width="2" fill="none"/><path d="M19 695l.06 1.6-1.5-1.73 1.5-1.26z"/><path d="M160 695c0 30.38-31.34 55-70 55s-70-24.62-70-55 31.34-55 70-55 70 24.62 70 55z" stroke="#000" stroke-width="2" fill="#fff"/><use xlink:href="#q" transform="matrix(1,0,0,1,20,640) translate(41.03 38.4625)"/><use xlink:href="#r" transform="matrix(1,0,0,1,20,640) translate(34.08 60.0625)"/><use xlink:href="#s" transform="matrix(1,0,0,1,20,640) translate(35.004999999999995 81.66250000000001)"/><path d="M480 770c0 27.6-35.82 50-80 50s-80-22.4-80-50 35.82-50 80-50 80 22.4 80 50z" stroke="#000" stroke-width="2" fill="#fff"/><use xlink:href="#h" transform="matrix(1,0,0,1,320,720) translate(40.55499999999999 42.525)"/><use xlink:href="#t" transform="matrix(1,0,0,1,320,720) translate(35.60499999999999 64.125)"/><path d="M1021.04 478.23l-.45 1.95-9.75-2.22.45-1.95zm-19.48-4.44l-.45 1.94-19.46-4.45.44-1.96zm-29.22-6.68l-.44 1.95-19.48-4.45.45-1.95zm-29.2-6.67l-.46 1.95-19.47-4.45.45-1.95zm-29.23-6.67l-.43 1.95-19.48-4.45.44-1.95zM797.06 427.1l-.1.45H790l-12.87-2.94.45-1.94zm-29.2-6.66l-.46 1.95-19.48-4.46.44-1.95zm-29.23-6.67l-.44 1.95-19.48-4.45.45-1.95zm-29.2-6.67l-.46 1.95-9.74-2.22.45-1.95z"/><path d="M1022.16 478.5l-.28.65-.4 1.23-.9-.2.43-1.95zM718.94 400.74l-17.43 5.58 13.3 12.6-1.38 1.45-15.75-14.92 20.66-6.6z"/><use xlink:href="#b" transform="matrix(1,0,0,1,780.3557057525634,427.5469545739547) translate(0 14.4)"/><path d="M1100 695c0 30.38-31.34 55-70 55s-70-24.62-70-55 31.34-55 70-55 70 24.62 70 55z" stroke="#000" stroke-width="2"/><use xlink:href="#u" transform="matrix(1,0,0,1,960,640) translate(30.554999999999993 48.775)"/><use xlink:href="#v" transform="matrix(1,0,0,1,960,640) translate(46.555 70.375)"/><path d="M1113.75 694.03l-.2.08-.95.33-1.03.3-1.13.3-1.27.28-1.42.24-1.6.2-1.84.16-1.44.06-.08-2 1.4-.06 1.75-.14 1.53-.2 1.34-.22 1.18-.25 1.06-.28.95-.3.85-.3.16-.05zm10.55-27.32l.4 2.73.24 2.28.13 1.95.03 1.68-.03 1.5-.08 1.3-.13 1.2-.16 1.07-.18.98-.2.9-.24.85-.26.78-.27.74-.3.68-.3.65-.3.6-.2.36-1.75-1 .18-.3.3-.55.26-.57.25-.6.23-.65.23-.7.2-.76.2-.83.18-.9.14-1 .12-1.1.07-1.24.03-1.4-.03-1.6-.12-1.85-.23-2.2-.4-2.63-.28-1.5 1.97-.37zm-3.3-13.52l.4 1.47-1.92.54-.4-1.4-6.84-18.83 1.88-.68zm-10.56-29.02l-1.88.7-2.08-5.72h2.13zm-15.4-45.54l2.4 8.57 2.15 6.55-1.92.62-2.15-6.6-2.43-8.66-1.3-5.53 1.94-.46zm-3.97-24.44l.22 3.55.42 4.04.12.82-1.98.28-.12-.85-.44-4.13-.23-3.64-.05-2.24 2-.04z"/><path d="M1090 551l1-.03.02 1.04-2 .05-.02-1.1zM1118.5 682.02l-13.65 12.2 17.28 6.1-.67 1.87L1101 695l16.16-14.47z"/><use xlink:href="#k" transform="matrix(1,0,0,1,1049.1373748747837,597.5359733304058) translate(0 14.4)"/><path d="M740.96 714.52l4.82.92v2.03l-.26-.04-4.98-.95-3.6-.85.45-1.94zm-30.4-11.8l3.28 1.9 3.38 1.76 3.5 1.65 3.63 1.53 3.46 1.28-.7 1.87-3.48-1.28-3.72-1.57-3.57-1.68-3.45-1.8-3.36-1.94-.84-.53 1.08-1.7zm167.13 1.9l-9.02 1.54v-1.3h-4.23l12.9-2.2zm30-4.66l-20.04 3-.3-1.97 20.04-3zm30.12-3.15l-6.4.42-13.72 1.45-.2-2 13.75-1.45 6.44-.4zm-248.8-12.05l3.02 3.2 3 2.96 3.04 2.74 3.05 2.53.4.3-1.2 1.6-.44-.34-3.13-2.57-3.1-2.8-3.06-3-3.06-3.27-1.92-2.24 1.5-1.3zm269 11.27l-10.13.22-.05-2 10.12-.22zm-281.27-27.57l3.12 4.7 1.08 1.5-1.62 1.17-1.1-1.52-3.17-4.77-1.36-2.22 1.7-1.03z"/><path d="M959 695l.03 1-1.04.02-.05-2 1.1-.02zM693.16 674.62l-.87 1.8-16.5-7.9 1 18.27-2 .1-1.2-21.66z"/><use xlink:href="#b" transform="matrix(1,0,0,1,745.7810599880894,704.8523391536) translate(0 14.4)"/><path d="M320.8 745.7l3.7 2.48-1.12 1.66-3.66-2.45-4.4-2.82 1.07-1.7zm-21-13.37l8.44 5.37-1.08 1.7-8.4-5.36-8.06-4.68 1-1.73zm-16.56-9.46l-.93 1.78-8.73-4.58-2.53-1.2h4.56zm-92.34-27.7l9.77 1.02-.1 1.07h-7.1v.18l-2.74-.3-9.48-.58.13-2zm-19.22-.96l-.04 2-9.66-.18.04-2z"/><path d="M162.05 694.02l-.04 2-1.04-.02.04-1-.03-1zM325.45 750.02l-21.67-.92.1-2 18.28.78-8.13-16.4 1.8-.9z"/><use xlink:href="#k" transform="matrix(1,0,0,1,193.47311295288674,697.2739943303322) translate(0 14.4)"/><path d="M477.36 736.66l-8.8 4.3-.87-1.8 8.78-4.3zm26.78-11.86l-4.07 1.6-13.85 6.18-.82-1.83 13.9-6.2 4.1-1.6zm9.1-3.6l-.74-1.86 1.67-.66h5.44zm74.4-24.12h-2.76l2.55-.7zm28.58-7.02l-3.8 1.32-7.26 2.17-7.76 2.14-.53-1.93 7.74-2.14 7.2-2.16 3.76-1.3zm14.72-12.96l-.03.3-.05.42-.08.42-.1.4-.1.4-.13.4-.15.4-.17.37-.18.4-.2.37-.22.38-.24.4-.28.37-.3.4-.33.4-.38.4-.4.43-.48.44-.53.44-.6.48-.68.5-1.17-1.62.65-.47.54-.43.46-.4.4-.38.36-.36.32-.35.27-.33.25-.32.22-.32.2-.3.18-.32.16-.3.14-.3.13-.3.12-.32.1-.3.1-.33.06-.33.08-.33.05-.36.03-.24z"/><path d="M630 676l1-.03-.02 1.08-2-.04.02-1.03zM480.1 723.84L470 739.14l18.25 1.45-.16 1.98-21.6-1.72 11.92-18.12z"/><use xlink:href="#w" transform="matrix(1,0,0,1,496.05979338871714,697.0771697793457) translate(0 14.4)"/><path d="M749.58 786.23l4.95-.1.05 2-5 .1-14.56-.32.05-2zm34.28.77l-12.67.8-6.87.13-.04-2 6.8-.14 12.64-.8zm-61.55-1.37l3 .07-.03 2-3.07-.07-8.8-.75v-2zm90.74-1.73l-6.7 1-12.7 1.32-.22-1.98 12.66-1.33 6.67-.98zm28.84-5.37l-5.75 1.34-13.4 2.56-.38-1.97 13.37-2.54 5.7-1.34zm-241.42-3.2v2l-11.37-.96.15-2zm269.7-4.64l-6.66 2.16-12.1 3.37-.53-1.93 12.05-3.36 6.62-2.15zm-290.65 2.87l-.12 2-19.47-1.26.14-2zm-29.2-1.9l-.13 2-19.47-1.26.13-1.98zm-29.25-1.8l-.05 2-19.5-.43.04-2zm-29.27-.64l-.04 2-9.76-.2.05-2zm405.86-8.82l-7.65 3.23-10.56 3.92-.7-1.87 10.5-3.9 7.63-3.22zm26.5-12.57l-7.4 3.87-10.13 4.77-.84-1.8 10.1-4.76 7.36-3.85zm25.45-14.62l-4.8 3.04-12.02 6.95-1-1.74 12-6.93 4.74-3zm16.36-10.67l-6.26 4.26-1.87 1.18-1.08-1.7 1.85-1.17 6.23-4.22z"/><path d="M482.05 769.02l-.04 2-1.03-.02.03-1v-.3l-.03-.7zM957.44 740.2l-1.8-.87 8-16.48-18.3.94-.1-2 21.66-1.12z"/><use xlink:href="#j" transform="matrix(1,0,0,1,600.4589104538261,770.3032409296538) translate(0 14.4)"/><path d="M1308.5 482.98l-127-217.12M1308.48 482.96l2.03 3.47" stroke="#000" stroke-width="2" fill="none"/><path d="M1182.38 265.38l-1.42.83.04-1.2-.07-2.1z"/><path d="M1180 265c0 30.38-31.34 55-70 55s-70-24.62-70-55 31.34-55 70-55 70 24.62 70 55z" stroke="#000" stroke-width="2"/><use xlink:href="#x" transform="matrix(1,0,0,1,1040,210) translate(23.08 59.0875)"/><use xlink:href="#y" transform="matrix(1,0,0,1,1040,210) translate(71.03 59.0875)"/><path d="M111.55 479.16l126.9-193.32M111.56 479.14l-2.2 3.37" stroke="#000" stroke-width="2" fill="none"/><path d="M239 285v.34l.04.9-1.44-.93 1.46-2.2z"/><path d="M400 285c0 30.38-35.82 55-80 55s-80-24.62-80-55 35.82-55 80-55 80 24.62 80 55z" stroke="#000" stroke-width="2" fill="#fff"/><use xlink:href="#z" transform="matrix(1,0,0,1,240,230) translate(31.029999999999994 48.775)"/><use xlink:href="#A" transform="matrix(1,0,0,1,240,230) translate(94.03 48.775)"/><use xlink:href="#B" transform="matrix(1,0,0,1,240,230) translate(50.05499999999999 70.375)"/><path d="M321.24 217.3l-.22 10.72-2-.04.22-10.7zm2.2-31.97l-1.18 11.16-.63 10.14-2-.12.64-10.2 1.17-11.2zm4.76-25.97l-1.67 7.12-1.58 8.33-1.97-.36 1.6-8.37 1.64-7.02h2.06zm14.62-34.18l-.78 1.13-1.7 2.7-1.73 2.98-1.72 3.3-1 2.17h-2.22l1.43-3.04 1.76-3.38 1.76-3.05 1.75-2.77.8-1.16zm23.85-20l-.15.07-1.9.86-1.88.93-1.83 1-1.78 1.1-1.76 1.16-1.74 1.25-1.72 1.37-1.7 1.47-1.7 1.58-1.02 1.04-1.43-1.4 1.05-1.07 1.76-1.65 1.77-1.52 1.78-1.42 1.82-1.3 1.83-1.23 1.86-1.13 1.9-1.04 1.95-.96 2-.9.18-.07zm20.55-4.15l-2.53.1-2.67.23-2.52.3-2.4.42-.35.08-.42-1.96.4-.1 2.5-.4 2.6-.33 2.74-.23 2.57-.1z"/><path d="M321.02 228l-.02 1.03-1-.03h-1l.02-1.05zM389 100l-17.3 13.1-1.2-1.6 14.6-11.05L368.38 93l.8-1.84z"/><use xlink:href="#k" transform="matrix(1,0,0,1,275.9949924682571,137.44610106545193) translate(0 14.4)"/><path d="M550 100c0 33.14-35.82 60-80 60s-80-26.86-80-60 35.82-60 80-60 80 26.86 80 60z" stroke="#000" stroke-width="2" fill="#fff"/><use xlink:href="#C" transform="matrix(1,0,0,1,390,40) translate(33.08 51.9)"/><use xlink:href="#D" transform="matrix(1,0,0,1,390,40) translate(67.08 51.9)"/><use xlink:href="#E" transform="matrix(1,0,0,1,390,40) translate(46.029999999999994 73.5)"/><path d="M558.3 275.44l-2.02.4-3 .5-3.06.35-2.4.17-.16-2 2.37-.17 2.97-.35 2.93-.47 1.98-.4zm-40.9-4.33l4.64 1.24 4.23.95 3.92.7 3.67.5 3.48.32-.2 2-3.5-.34-3.77-.5-4-.73-4.3-.96-4.72-1.27-.48-.15.6-1.9zm-18.45-6.74l7.3 2.97.84.3-.7 1.9-.87-.33-7.4-3.02-10.9-5.38.88-1.8zm-20.24-10l-.88 1.8-10.4-5.13h4.52zM391.1 242l-1.07.84-1.68 1.42-1.74 1.6-1.8 1.8-1.23 1.35-1.47-1.34 1.26-1.37 1.87-1.88 1.8-1.66 1.74-1.48 1.12-.87z"/><path d="M383.6 249l-.7.73-.9-.8-.63-.48.75-.8zM559.9 274.08l-17.12 13.33-1.23-1.57L556 274.58l-16.83-7.24.8-1.84z"/><use xlink:href="#k" transform="matrix(1,0,0,1,392.6680270704327,229.4255780958476) translate(0 14.4)"/><path d="M720 265c0 33.14-35.82 60-80 60s-80-26.86-80-60 35.82-60 80-60 80 26.86 80 60z" stroke="#000" stroke-width="2" fill="#fff"/><use xlink:href="#F" transform="matrix(1,0,0,1,560,205) translate(45.05499999999999 51.9)"/><use xlink:href="#G" transform="matrix(1,0,0,1,560,205) translate(45.05499999999999 73.5)"/><path d="M-188.46 438.03L78.46 20.83M-188.45 438l-2.17 3.4" stroke="#000" stroke-width="2" fill="none"/><path d="M79 20v.4l.03.84-1.43-.92 1.46-2.27z"/><path d="M240 20c0 33.14-35.82 60-80 60S80 53.14 80 20s35.82-60 80-60 80 26.86 80 60z" stroke="#000" stroke-width="2" fill="#fff"/><use xlink:href="#q" transform="matrix(1,0,0,1,80,-40) translate(51.029999999999994 29.4)"/><use xlink:href="#H" transform="matrix(1,0,0,1,80,-40) translate(20.62999999999999 51)"/><use xlink:href="#I" transform="matrix(1,0,0,1,80,-40) translate(72.53 51)"/><use xlink:href="#J" transform="matrix(1,0,0,1,80,-40) translate(32.05499999999999 72.60000000000001)"/><use xlink:href="#s" transform="matrix(1,0,0,1,80,-40) translate(45.005 94.20000000000002)"/><path d="M960 890c0 30.38-31.34 55-70 55s-70-24.62-70-55 31.34-55 70-55 70 24.62 70 55z" stroke="#000" stroke-width="2"/><use xlink:href="#u" transform="matrix(1,0,0,1,820,835) translate(30.554999999999993 48.775)"/><use xlink:href="#K" transform="matrix(1,0,0,1,820,835) translate(40.23 70.375)"/><path d="M941.68 838.05l-.28.33-2.3 3-2.12 3.08-.6.94-1.7-1.05.62-1 2.17-3.14 2.38-3.08.3-.37zm20.5-18l-4 2.72-4.43 3.4-3.72 3.17-2.15 2.04-1.38-1.45 2.2-2.08 3.8-3.24 4.52-3.45 4.03-2.76zm7.86-4.63l-.67-1.2h2.78zm39.75-23.53l-.98.73h-3.5l2.02-1.38 1.24-.95zm17.63-21.53l-.5 1.18-.97 2.05-1.1 2-1.2 2-1.37 1.97-1.54 2-1.74 2.02-2 2.1-.15.14-1.37-1.45.12-.13 1.92-2.02 1.67-1.95 1.47-1.9 1.3-1.9 1.17-1.9 1.04-1.9.93-1.96.48-1.13zm3.54-18.34l-.05 2.23-.24 3-.36 2.74-.25 1.35-1.97-.37.24-1.3.35-2.64.22-2.88.05-2.18z"/><path d="M1030 751l1-.03-.03 1.08-2-.05.03-1.03zM938.85 825.06l-1.92 18.2 16.88-7.08.78 1.84-20 8.4 2.28-21.57z"/><use xlink:href="#w" transform="matrix(1,0,0,1,935.7662750498973,792.6293084643372) translate(0 14.4)"/><path d="M520 890c0 27.6-35.82 50-80 50s-80-22.4-80-50 35.82-50 80-50 80 22.4 80 50z" stroke="#000" stroke-width="2" fill="#fff"/><use xlink:href="#L" transform="matrix(1,0,0,1,360,840) translate(51.529999999999994 23.41)"/><use xlink:href="#M" transform="matrix(1,0,0,1,360,840) translate(40.55499999999999 45.01)"/><use xlink:href="#N" transform="matrix(1,0,0,1,360,840) translate(26.954999999999995 66.61)"/><path d="M362.28 861.8l4.53 3.3-1.16 1.6-4.5-3.25-3.58-2.38 1.1-1.66zm-29.24-15.9l6.66 2.96 6.18 3.06 4.24 2.32-.96 1.76-4.2-2.3-6.1-3.03-6.6-2.92-.8-.32.74-1.86zm-24.45-8.4l9.1 2.74 5.2 1.8-.65 1.9-5.15-1.8-9.05-2.7-4.66-1.2.48-1.94zm-23.98-5.53l9.6 2.03-.42 1.95-9.53-2-3.88-.55v-2.02zm-122.7-22.76l4.83 1.92 5.54 1.92 2.84.86h-3.7v.97l-5.4-1.87-4.9-1.94-3.2-1.43.8-1.82zm-25.84-15.93l2.48 2.14 2.63 2.1 2.8 2.02 3 2 3.05 1.83-1.04 1.72-3.08-1.87-3.07-2.04-2.87-2.08-2.7-2.13-2.54-2.2-1.73-1.6 1.38-1.47zM118.1 769.4l1.7 3.26 1.8 3.06 1.82 2.9 1.9 2.72 1.97 2.6.46.56-1.54 1.27-.5-.6-2.02-2.65-1.94-2.8-1.88-2.96-1.82-3.13-1.75-3.35-.68-1.46 1.8-.86zm-6.23-15.88l1.46 4.48.33.9-1.87.7-.36-.94-1.5-4.56-1.1-4.03 1.9-.53z"/><path d="M110.76 749.56l-1.93.54-.3-1.04.36-.06 1.6-.4zM367.68 867l-21.64-1.53.14-2 18.26 1.3-7.67-16.63 1.82-.84z"/><use xlink:href="#k" transform="matrix(1,0,0,1,171.44482337505866,813.8979397081375) translate(0 14.4)"/><path d="M531.9 890.77l-9.88.2-.04-2 9.86-.2zm29.57-.63l-19.72.42-.05-2 19.73-.42zm29.6-1.25l-19.28 1.02h-.47l-.04-2h.42l19.24-1.03zm22.67-1.2l-12.83.67-.1-2 12.94-.7zm203.85-3.87l-.2 2-9.82-.97.2-2zm-20.12-1.97l.48.05-.2 2-.44-.04-19.2-1.22.12-2zm-31.5-2l2.42.17-.13 2-2.38-.16-17.3-.36.04-2zm-27.2-.55l-.05 2-3.65-.07-8.4.45v-2l8.36-.45z"/><path d="M522.05 890.98l-1.08.02.03-1v-.3l-.03-.7 1.04-.02zM819.3 885l-19.65 9.17-.84-1.8 16.6-7.75-14.78-10.8 1.18-1.63z"/><use xlink:href="#j" transform="matrix(1,0,0,1,613.7374159175009,872.8793931433277) translate(0 14.4)"/><path d="M1200-15c0 30.38-31.34 55-70 55s-70-24.62-70-55 31.34-55 70-55 70 24.62 70 55z" stroke="#000" stroke-width="2"/><use xlink:href="#O" transform="matrix(1,0,0,1,1060,-70) translate(16.579999999999995 43.410000000000004)"/><use xlink:href="#P" transform="matrix(1,0,0,1,1060,-70) translate(36.029999999999994 65.01)"/><use xlink:href="#Q" transform="matrix(1,0,0,1,1060,-70) translate(41.005 86.61000000000001)"/><path d="M1310.78 473.16L1201.22-14.02M1310.77 473.13l.9 3.93" stroke="#000" stroke-width="2" fill="none"/><path d="M1202.2-14.22l-1.24.28.04-1.06-.1-3.05.42-.1zM557.66 90.27l-.2.34-4.7 8.3-1.74-.97 4.7-8.33.22-.36zm15.72-25.33l-4.6 6.92-5.97 9.9-1.7-1.04 6-9.93 4.62-6.97zm17.28-24.25l-2.36 2.97-9.32 12.83-.1.14-1.66-1.1.12-.18 9.36-12.9 2.4-3zM610 18.06l-5.04 5.38-8.05 9.34-.06.08-1.57-1.24.1-.12 8.1-9.4 5.08-5.4zM631.8-2.16l-5 4.13-6.96 6.27-2.84 2.8-1.4-1.44 2.87-2.8 7.03-6.34 5.02-4.16zm24.4-16.86l-3.22 1.86-6.4 4.06-6.45 4.5-.5.37-1.2-1.6.53-.4 6.53-4.54 6.47-4.1 3.25-1.88zm401.83 3l-.03 2-9.95-.2.04-2zm-34.8-.74l14.9.32-.04 2-14.94-.32-5-.32.13-2zm-14.88-.94l-.13 2-19.88-1.27.12-2zm-29.75-2.1l-.2 1.98-19.8-2.1.2-2zm-44.4-4.74l14.7 1.57-.2 2-14.75-1.58-5.07-.68.27-2zm-251.12-7.03l-4.33 1.6-6.56 2.76-6.45 3.03-.8.42-.93-1.77.86-.45 6.52-3.06 6.63-2.8 4.37-1.62zm236.2 5.03l-.27 1.98-19.73-2.65.27-2zm-29.6-3.98l-.27 1.98-19.73-2.66.27-1.98zm-29.6-3.98l-.27 1.98-19.73-2.66.27-1.98zm-148.38-4.87l-4.4.84-7.64 1.8-7.22 2-.53-1.92 7.26-2.03 7.7-1.8 4.47-.85z"/><path d="M1059.04-16l-.04 1 .03 1-1.08-.02.04-2zM552.96 96.6l15.93-9.03.97 1.74L551 100l-.28-21.7h2z"/><use xlink:href="#b" transform="matrix(1,0,0,1,714.0855163680361,-54.54526318280773) translate(0 14.4)"/><path d="M1038 266h-9.56v-2h9.55zm-19.1 0h-19.1v-2h19.1zm-28.66 0h-19.1v-2h19.1zm-28.65 0h-19.1v-2h19.1zm-143.27 0h-19.1v-2h19.1zm-28.66 0h-19.1v-2h19.1zm-28.65 0h-19.1v-2h19.1zm-28.65 0h-9.55v-2h9.55z"/><path d="M1039 265l.03 1h-1.06v-2h1.07zM740.7 255.68L724.92 265l15.76 9.32-1.03 1.72L721 265l18.67-11.04z"/><use xlink:href="#b" transform="matrix(1,0,0,1,818.5473068717257,254.20000000000005) translate(0 14.4)"/><path d="M252.5 20.07l-2.6.38-2.85.3-2.96.2-2.08.03-.04-2 2.02-.04 2.88-.18 2.77-.3 2.56-.37zm28.85-12.45l-.4.3-2.63 1.83-2.58 1.65-2.55 1.47-2.53 1.3-2.5 1.2-2.53 1.05-2.52.94-.38.12-.6-1.9.32-.1 2.45-.92 2.44-1.02 2.44-1.15 2.45-1.3 2.47-1.42 2.5-1.6 2.58-1.78.36-.27zm21.88-22.3l-3.93 4.96-3.55 4.12-3.28 3.5-3.04 2.97-1.4-1.42 3-2.95 3.23-3.44 3.5-4.06 3.9-4.93zm10.12-14.7l-4 6.04-1.66-1.1 3.96-6 1.65-2.73h2.34zM336-68.07l-7.67 13.3h-2.3l8.23-14.3zm15.86-26.8l-3.52 5.3-7.16 12.47-1.74-1 7.2-12.53 3.55-5.35zm19.53-24l-2.44 2.38-3.22 3.44-3.5 4.06-3.9 4.9-.52.75-1.62-1.18.56-.77 3.94-4.98 3.55-4.12 3.28-3.5 2.46-2.4zm25.74-16.45l-2.05.77-2.44 1.02-2.44 1.15-2.45 1.3-2.47 1.42-2.5 1.6-2.58 1.78-1 .76-1.22-1.6 1.04-.78 2.64-1.83 2.58-1.65 2.55-1.47 2.53-1.3 2.5-1.2 2.53-1.05 2.1-.78zm20.06-3.63l-1.2.02-2.88.18-2.77.3-2.68.4-.64.1-.38-1.95.68-.14 2.77-.4 2.85-.3 2.96-.2 1.26-.02z"/><path d="M242.05 20.98l-1.08.02.03-1v-.4l-.03-.6 1.04-.02zM419-140l-17.36 13-1.2-1.6 14.65-10.97-16.68-7.56.82-1.82z"/><use xlink:href="#k" transform="matrix(1,0,0,1,266.4971677862654,-54.76537966933388) translate(0 14.4)"/><path d="M580-140c0 33.14-35.82 60-80 60s-80-26.86-80-60 35.82-60 80-60 80 26.86 80 60z" stroke="#000" stroke-width="2" fill="#fff"/><use xlink:href="#R" transform="matrix(1,0,0,1,420,-200) translate(25.555 63.15)"/><use xlink:href="#S" transform="matrix(1,0,0,1,420,-200) translate(68.555 63.15)"/><path d="M471.46 27.22l-.32 5-.1 4.98-2-.04.1-5.02.32-5.04zm3.1-19.08l-.97 4.05-.84 4.3-.13.85-1.98-.3.13-.9.85-4.38.93-3.93h2.07zm12.98-30.94l-4.46 9.04h-2.23l4.9-9.9.84-1.78h2.2zm11.93-35.06l-.25 1.7-.85 4.4-.98 4.13-.18.6h-2.08l.3-1.1.97-4.06.84-4.3.25-1.66zm1.5-20.12l-.1 5.84-.28 4.23-2-.14.26-4.18.12-5.8z"/><path d="M500-79h.92l.06 1.05-2-.04.02-1.03zM470.2 35.08l10.1-15.28 1.66 1.1L470 39l-10.1-19.2 1.78-.93z"/><g><use xlink:href="#w" transform="matrix(1,0,0,1,439.0923179191915,-47.04127639050746) translate(0 14.4)"/></g><path d="M591.73-139H582v-2h9.73zm23.8 0h-14.06v-2h14.06zm141.65 0h-9.73v-2h9.73zm-19.46 0h-13.24v-2h13.24z"/><path d="M582.03-139h-1.06l.03-1v-.4l-.03-.6h1.06zM759-140l-18.67 11.04-1.02-1.72 15.77-9.32-15.76-9.32 1.03-1.72z"/><g><use xlink:href="#k" transform="matrix(1,0,0,1,615.5263349865214,-150.8) translate(0 14.4)"/></g><path d="M920-140c0 33.14-35.82 60-80 60s-80-26.86-80-60 35.82-60 80-60 80 26.86 80 60z" stroke="#000" stroke-width="2" fill="#fff"/><g><use xlink:href="#T" transform="matrix(1,0,0,1,760,-200) translate(26.07999999999999 51.9)"/><use xlink:href="#U" transform="matrix(1,0,0,1,760,-200) translate(76.98 51.9)"/><use xlink:href="#V" transform="matrix(1,0,0,1,760,-200) translate(47.505 73.5)"/><use xlink:href="#W" transform="matrix(1,0,0,1,760,-200) translate(81.505 73.5)"/></g><path d="M1076.35-67.1l6.06 8.34-1.6 1.17-6.04-8.3-.07-.1 1.55-1.23zm-18.97-22.13l6.02 6.4 6.27 7.3-1.5 1.3-6.26-7.25-5.95-6.35-1.7-1.67 1.4-1.43zm-22.58-19.6l5.53 4.2 5.57 4.6 2.13 1.92-1.34 1.47-2.1-1.88-5.52-4.57-5.45-4.15-3.22-2.24 1.15-1.64zm-89.44-31.2l10 1.05 8.35 1.23-.26 1.9h-.63l-7.68-1.14-9.93-1.03-2.4-.15.1-2zm-12.9-.74l-.05 2-10.42-.2.04-2z"/><path d="M922.05-140.98l-.04 2-1.03-.02.03-1v-.4l-.03-.6zM1082.67-56.7l-19.97-8.46.78-1.85 16.86 7.14-1.86-18.22 2-.2z"/><g><use xlink:href="#j" transform="matrix(1,0,0,1,947.7893709320572,-135.8612043208683) translate(0 14.4)"/></g><path d="M677.2 61.48l-.03 2-10.1-.1.03-2zm-20.16-.36l-.07 2-20.17-.78.08-2zm-43.74-2.6l13.56 1.1-.16 2-13.6-1.1-6.53-.8.24-2zm-29.87-4.26l13.32 2.22-.33 1.97-13.36-2.22-6.45-1.36.43-1.96zm-35.05-9.42l6.95 2.4 7.93 2.37 3.98 1.03-.5 1.94-4.02-1.03-8-2.4-7.03-2.42-.34-.13.73-1.88zm-27.12-13.3l4.98 3 5.03 2.76 5.25 2.6 2.28 1-.8 1.83-2.32-1.02-5.34-2.63-5.1-2.8-5.05-3.04-.14-.08 1.1-1.67zm-8.3-5.8l-1.22 1.6-16.04-12.26 1.2-1.6zm-260.9-7.12l-9.86 2.14-.42-1.95 9.86-2.13zm29.58-6.42l-19.72 4.28-.42-1.95 19.72-4.28zm29.6-6.42l-19.74 4.28-.42-1.95 19.72-4.27zm176.4 3.36l-1.97-1.3h2.82zM340.96.4l-19.9 3.44-.33-1.97 19.9-3.44zm29.87-4.6l-13.1 1.7-6.83 1.18-.33-1.97 6.88-1.18 13.13-1.7zm30.05-3.17L383.87-5.9l-3.03.4-.26-1.98 3.07-.4 17.05-1.48zm10.78-.53l-.75.04-.1-2 .85-.04z"/><path d="M242.23 20.76l-1.26.27L241 20v-.4l-.03-.62.83-.18zM679 62.5l-18.77 10.87-1-1.73 15.84-9.18L659.4 53l1.03-1.7z"/><g><use xlink:href="#k" transform="matrix(1,0,0,1,411.6833430620854,-13.757740746374564) translate(0 14.4)"/></g><path d="M840 62.5c0 33.14-35.82 60-80 60s-80-26.86-80-60 35.82-60 80-60 80 26.86 80 60z" stroke="#000" stroke-width="2" fill="#fff"/><g><use xlink:href="#X" transform="matrix(1,0,0,1,680,2.5) translate(41.029999999999994 51.9)"/><use xlink:href="#Y" transform="matrix(1,0,0,1,680,2.5) translate(88.97999999999999 51.9)"/><use xlink:href="#Z" transform="matrix(1,0,0,1,680,2.5) translate(50.07999999999999 73.5)"/></g><path d="M1051.62 230.5l-1.4 1.42-7.38-7.23 1.4-1.44zm-21.02-21.57l6.5 6.93-1.46 1.37-6.56-7-6.97-8.7 1.58-1.26zm-13.37-16.73l-1.57 1.24-12.9-16.14 1.56-1.25zm-19.36-24.22l-1.56 1.25-12.9-16.15 1.57-1.25zm-31.42-39.32l12.07 15.1-1.56 1.25-12.05-15.07-.86-1 1.52-1.3zm-7.63-8.87l-1.52 1.3-1.32-1.54h2.64zm-34.14-32.12L930 91.7l5.6 4.66 1.4 1.26-.3.34h-2.3l-.1-.1-5.55-4.58-5.25-4-4.03-2.8 1.14-1.63zm-29.84-16.55l4.97 2.1 4.93 2.3 4.9 2.57 2.15 1.24-1 1.73-2.1-1.22-4.84-2.52-4.84-2.28-4.9-2.06-1.83-.7.7-1.87zm-26.93-7.46l5.8 1.1 5.56 1.3 3.83 1.07-.55 1.93-3.8-1.06-5.46-1.27-5.73-1.1-5.1-.75.3-1.97zm-19.47-2.02l3.96.25-.14 2-3.9-.25-6.38-.13.04-2z"/><path d="M842.05 61.52l-.04 2-1.03-.02.03-1v-.4l-.03-.6zM1052.24 232.46l-21.07-5.14.47-1.94 17.8 4.34-4.78-17.68 1.93-.52z"/><g><use xlink:href="#aa" transform="matrix(1,0,0,1,895.8362707357327,97.95666650877159) translate(0 14.4)"/></g><path d="M1110.84 201.38l.14 6.6-2 .04-.14-6.55-.2-3.3 2-.12zm-4.64-32.26l1.38 5.87 1.16 6.1.95 6.4.05.65-1.98.2-.07-.6-.93-6.3-1.15-6.04-1.36-5.8-.14-.5 1.92-.54zm-10.1-27.2l2.47 5.27 2.24 5.3 2.02 5.4.37 1.14-1.92.62-.35-1.1-1.98-5.32-2.2-5.24-2.45-5.2-.63-1.2 1.77-.93zm-12.93-21.25l3.77 5.43 3.37 5.32.34.55-1.74 1-.3-.52-3.33-5.25-3.72-5.35-3.83-5.04 1.6-1.2zm-21.2-24.27l6.57 6.68 4.38 4.87-1.5 1.34-4.34-4.84-6.5-6.63-2.86-2.68 1.37-1.46zm-18.27-16.36l8.06 6.94-1.3 1.52-8.03-6.9-7.2-5.7 1.25-1.56zm-15.3-12.07l.32.24-1.24 1.58-.28-.23-6.42-4.77h3.35zm-33.33-24.8h-3.35l-3.92-2.9 1.2-1.6zm-14.02-10.4l-1.2 1.6L964 22.57l1.2-1.6zm-27.96-20.8l4.13 3.08-1.2 1.6-4.2-3.12L940.77 4l1.3-1.53zm-29.28-27.2l7.97 8.13 3.04 2.86-1.36 1.46-3.1-2.9-8-8.18-2.8-3.1 1.47-1.34zm-18.5-22.26l5.48 7.22 3.78 4.56-1.54 1.27-3.8-4.6-5.53-7.27-2.72-3.92 1.64-1.14zm-17.36-28.6l3.78 7.24 4.13 7.14 1.34 2.1-1.68 1.08-1.37-2.14L890-57.9l-3.83-7.3-.34-.72 1.8-.86zM881.32-81l2.22 5.3-1.84.76-2.24-5.32-1.47-3.9 1.86-.7z"/><path d="M1111 209.04l-1-.04-1 .03-.02-1.04 2-.05zM895.53-73.08l-1.2 1.6-14.57-11.1-2.7 18.1-2-.3 3.22-21.44z"/><g><use xlink:href="#ab" transform="matrix(1,0,0,1,946.4728630137702,43.18123307231248) translate(0 14.4)"/></g><defs><path d="M197 0v-115H63V0H30v-248h33v105h134v-105h34V0h-34" id="ac"/><path d="M141-36C126-15 110 5 73 4 37 3 15-17 15-53c-1-64 63-63 125-63 3-35-9-54-41-54-24 1-41 7-42 31l-33-3c5-37 33-52 76-52 45 0 72 20 72 64v82c-1 20 7 32 28 27v20c-31 9-61-2-59-35zM48-53c0 20 12 33 32 33 41-3 63-29 60-74-43 2-92-5-92 41" id="ad"/><path d="M96-169c-40 0-48 33-48 73s9 75 48 75c24 0 41-14 43-38l32 2c-6 37-31 61-74 61-59 0-76-41-82-99-10-93 101-131 147-64 4 7 5 14 7 22l-32 3c-4-21-16-35-41-35" id="ae"/><path d="M143 0L79-87 56-68V0H24v-261h32v163l83-92h37l-77 82L181 0h-38" id="af"/><path d="M100-194c63 0 86 42 84 106H49c0 40 14 67 53 68 26 1 43-12 49-29l28 8c-11 28-37 45-77 45C44 4 14-33 15-96c1-61 26-98 85-98zm52 81c6-60-76-77-97-28-3 7-6 17-6 28h103" id="ag"/><path d="M114-163C36-179 61-72 57 0H25l-1-190h30c1 12-1 29 2 39 6-27 23-49 58-41v29" id="ah"/><g id="a"><use transform="matrix(0.05,0,0,0.05,0,0)" xlink:href="#ac"/><use transform="matrix(0.05,0,0,0.05,12.950000000000001,0)" xlink:href="#ad"/><use transform="matrix(0.05,0,0,0.05,22.950000000000003,0)" xlink:href="#ae"/><use transform="matrix(0.05,0,0,0.05,31.950000000000003,0)" xlink:href="#af"/><use transform="matrix(0.05,0,0,0.05,40.95,0)" xlink:href="#ag"/><use transform="matrix(0.05,0,0,0.05,50.95,0)" xlink:href="#ah"/></g><path d="M18-100v-36l175-74v27L42-118l151 64v27" id="ai"/><path d="M127-220V0H93v-220H8v-28h204v28h-85" id="aj"/><path d="M106-169C34-169 62-67 57 0H25v-261h32l-1 103c12-21 28-36 61-36 89 0 53 116 60 194h-32v-121c2-32-8-49-39-48" id="ak"/><path d="M59-47c-2 24 18 29 38 22v24C64 9 27 4 27-40v-127H5v-23h24l9-43h21v43h35v23H59v120" id="al"/><path d="M117-194c89-4 53 116 60 194h-32v-121c0-31-8-49-39-48C34-167 62-67 57 0H25l-1-190h30c1 10-1 24 2 32 11-22 29-35 61-36" id="am"/><path d="M135-143c-3-34-86-38-87 0 15 53 115 12 119 90S17 21 10-45l28-5c4 36 97 45 98 0-10-56-113-15-118-90-4-57 82-63 122-42 12 7 21 19 24 35" id="an"/><path d="M18-27v-27l151-64-151-65v-27l175 74v36" id="ao"/><g id="b"><use transform="matrix(0.05,0,0,0.05,0,0)" xlink:href="#ai"/><use transform="matrix(0.05,0,0,0.05,10.5,0)" xlink:href="#ai"/><use transform="matrix(0.05,0,0,0.05,21,0)" xlink:href="#aj"/><use transform="matrix(0.05,0,0,0.05,31.950000000000003,0)" xlink:href="#ak"/><use transform="matrix(0.05,0,0,0.05,41.95,0)" xlink:href="#ah"/><use transform="matrix(0.05,0,0,0.05,47.900000000000006,0)" xlink:href="#ag"/><use transform="matrix(0.05,0,0,0.05,57.900000000000006,0)" xlink:href="#ad"/><use transform="matrix(0.05,0,0,0.05,67.9,0)" xlink:href="#al"/><use transform="matrix(0.05,0,0,0.05,72.9,0)" xlink:href="#ag"/><use transform="matrix(0.05,0,0,0.05,82.9,0)" xlink:href="#am"/><use transform="matrix(0.05,0,0,0.05,92.9,0)" xlink:href="#an"/><use transform="matrix(0.05,0,0,0.05,101.9,0)" xlink:href="#ao"/><use transform="matrix(0.05,0,0,0.05,112.4,0)" xlink:href="#ao"/></g><path d="M212-179c-10-28-35-45-73-45-59 0-87 40-87 99 0 60 29 101 89 101 43 0 62-24 78-52l27 14C228-24 195 4 139 4 59 4 22-46 18-125c-6-104 99-153 187-111 19 9 31 26 39 46" id="ap"/><path d="M84 4C-5 8 30-112 23-190h32v120c0 31 7 50 39 49 72-2 45-101 50-169h31l1 190h-30c-1-10 1-25-2-33-11 22-28 36-60 37" id="aq"/><path d="M100-194c62-1 85 37 85 99 1 63-27 99-86 99S16-35 15-95c0-66 28-99 85-99zM99-20c44 1 53-31 53-75 0-43-8-75-51-75s-53 32-53 75 10 74 51 75" id="ar"/><path d="M210-169c-67 3-38 105-44 169h-31v-121c0-29-5-50-35-48C34-165 62-65 56 0H25l-1-190h30c1 10-1 24 2 32 10-44 99-50 107 0 11-21 27-35 58-36 85-2 47 119 55 194h-31v-121c0-29-5-49-35-48" id="as"/><g id="c"><use transform="matrix(0.05,0,0,0.05,0,0)" xlink:href="#ap"/><use transform="matrix(0.05,0,0,0.05,12.950000000000001,0)" xlink:href="#aq"/><use transform="matrix(0.05,0,0,0.05,22.950000000000003,0)" xlink:href="#an"/><use transform="matrix(0.05,0,0,0.05,31.950000000000003,0)" xlink:href="#al"/><use transform="matrix(0.05,0,0,0.05,36.95,0)" xlink:href="#ar"/><use transform="matrix(0.05,0,0,0.05,46.95,0)" xlink:href="#as"/><use transform="matrix(0.05,0,0,0.05,61.900000000000006,0)" xlink:href="#ag"/><use transform="matrix(0.05,0,0,0.05,71.9,0)" xlink:href="#ah"/></g><path fill="#fff" d="M232-93c-1 65-40 97-104 97C67 4 28-28 28-90v-158h33c8 89-33 224 67 224 102 0 64-133 71-224h33v155" id="at"/><path fill="#fff" d="M117-194c89-4 53 116 60 194h-32v-121c0-31-8-49-39-48C34-167 62-67 57 0H25l-1-190h30c1 10-1 24 2 32 11-22 29-35 61-36" id="au"/><path fill="#fff" d="M141-36C126-15 110 5 73 4 37 3 15-17 15-53c-1-64 63-63 125-63 3-35-9-54-41-54-24 1-41 7-42 31l-33-3c5-37 33-52 76-52 45 0 72 20 72 64v82c-1 20 7 32 28 27v20c-31 9-61-2-59-35zM48-53c0 20 12 33 32 33 41-3 63-29 60-74-43 2-92-5-92 41" id="av"/><path fill="#fff" d="M84 4C-5 8 30-112 23-190h32v120c0 31 7 50 39 49 72-2 45-101 50-169h31l1 190h-30c-1-10 1-25-2-33-11 22-28 36-60 37" id="aw"/><path fill="#fff" d="M59-47c-2 24 18 29 38 22v24C64 9 27 4 27-40v-127H5v-23h24l9-43h21v43h35v23H59v120" id="ax"/><path fill="#fff" d="M106-169C34-169 62-67 57 0H25v-261h32l-1 103c12-21 28-36 61-36 89 0 53 116 60 194h-32v-121c2-32-8-49-39-48" id="ay"/><path fill="#fff" d="M100-194c62-1 85 37 85 99 1 63-27 99-86 99S16-35 15-95c0-66 28-99 85-99zM99-20c44 1 53-31 53-75 0-43-8-75-51-75s-53 32-53 75 10 74 51 75" id="az"/><path fill="#fff" d="M114-163C36-179 61-72 57 0H25l-1-190h30c1 12-1 29 2 39 6-27 23-49 58-41v29" id="aA"/><path fill="#fff" d="M24-231v-30h32v30H24zM24 0v-190h32V0H24" id="aB"/><path fill="#fff" d="M9 0v-24l116-142H16v-24h144v24L44-24h123V0H9" id="aC"/><path fill="#fff" d="M100-194c63 0 86 42 84 106H49c0 40 14 67 53 68 26 1 43-12 49-29l28 8c-11 28-37 45-77 45C44 4 14-33 15-96c1-61 26-98 85-98zm52 81c6-60-76-77-97-28-3 7-6 17-6 28h103" id="aD"/><path fill="#fff" d="M85-194c31 0 48 13 60 33l-1-100h32l1 261h-30c-2-10 0-23-3-31C134-8 116 4 85 4 32 4 16-35 15-94c0-66 23-100 70-100zm9 24c-40 0-46 34-46 75 0 40 6 74 45 74 42 0 51-32 51-76 0-42-9-74-50-73" id="aE"/><g id="d"><use transform="matrix(0.05,0,0,0.05,0,0)" xlink:href="#at"/><use transform="matrix(0.05,0,0,0.05,12.950000000000001,0)" xlink:href="#au"/><use transform="matrix(0.05,0,0,0.05,22.950000000000003,0)" xlink:href="#av"/><use transform="matrix(0.05,0,0,0.05,32.95,0)" xlink:href="#aw"/><use transform="matrix(0.05,0,0,0.05,42.95,0)" xlink:href="#ax"/><use transform="matrix(0.05,0,0,0.05,47.95,0)" xlink:href="#ay"/><use transform="matrix(0.05,0,0,0.05,57.95,0)" xlink:href="#az"/><use transform="matrix(0.05,0,0,0.05,67.95,0)" xlink:href="#aA"/><use transform="matrix(0.05,0,0,0.05,73.9,0)" xlink:href="#aB"/><use transform="matrix(0.05,0,0,0.05,77.85000000000001,0)" xlink:href="#aC"/><use transform="matrix(0.05,0,0,0.05,86.85000000000001,0)" xlink:href="#aD"/><use transform="matrix(0.05,0,0,0.05,96.85000000000001,0)" xlink:href="#aE"/></g><path fill="#fff" d="M30 0v-248h33v221h125V0H30" id="aF"/><path fill="#fff" d="M177-190C167-65 218 103 67 71c-23-6-38-20-44-43l32-5c15 47 100 32 89-28v-30C133-14 115 1 83 1 29 1 15-40 15-95c0-56 16-97 71-98 29-1 48 16 59 35 1-10 0-23 2-32h30zM94-22c36 0 50-32 50-73 0-42-14-75-50-75-39 0-46 34-46 75s6 73 46 73" id="aG"/><g id="e"><use transform="matrix(0.05,0,0,0.05,0,0)" xlink:href="#aF"/><use transform="matrix(0.05,0,0,0.05,10,0)" xlink:href="#az"/><use transform="matrix(0.05,0,0,0.05,20,0)" xlink:href="#aG"/><use transform="matrix(0.05,0,0,0.05,30,0)" xlink:href="#aB"/><use transform="matrix(0.05,0,0,0.05,33.95,0)" xlink:href="#au"/></g><path d="M30 0v-248h33v221h125V0H30" id="aH"/><path d="M177-190C167-65 218 103 67 71c-23-6-38-20-44-43l32-5c15 47 100 32 89-28v-30C133-14 115 1 83 1 29 1 15-40 15-95c0-56 16-97 71-98 29-1 48 16 59 35 1-10 0-23 2-32h30zM94-22c36 0 50-32 50-73 0-42-14-75-50-75-39 0-46 34-46 75s6 73 46 73" id="aI"/><path d="M24-231v-30h32v30H24zM24 0v-190h32V0H24" id="aJ"/><g id="f"><use transform="matrix(0.05,0,0,0.05,0,0)" xlink:href="#aH"/><use transform="matrix(0.05,0,0,0.05,10,0)" xlink:href="#ar"/><use transform="matrix(0.05,0,0,0.05,20,0)" xlink:href="#aI"/><use transform="matrix(0.05,0,0,0.05,30,0)" xlink:href="#aJ"/><use transform="matrix(0.05,0,0,0.05,33.95,0)" xlink:href="#am"/></g><path d="M24 0v-261h32V0H24" id="aK"/><g id="g"><use transform="matrix(0.05,0,0,0.05,0,0)" xlink:href="#ac"/><use transform="matrix(0.05,0,0,0.05,12.950000000000001,0)" xlink:href="#ag"/><use transform="matrix(0.05,0,0,0.05,22.950000000000003,0)" xlink:href="#ad"/><use transform="matrix(0.05,0,0,0.05,32.95,0)" xlink:href="#aK"/><use transform="matrix(0.05,0,0,0.05,36.900000000000006,0)" xlink:href="#al"/><use transform="matrix(0.05,0,0,0.05,41.900000000000006,0)" xlink:href="#ak"/><use transform="matrix(0.05,0,0,0.05,51.900000000000006,0)" xlink:href="#ap"/><use transform="matrix(0.05,0,0,0.05,64.85000000000001,0)" xlink:href="#ad"/><use transform="matrix(0.05,0,0,0.05,74.85000000000001,0)" xlink:href="#ah"/><use transform="matrix(0.05,0,0,0.05,80.80000000000001,0)" xlink:href="#ag"/></g><path d="M30-248c87 1 191-15 191 75 0 78-77 80-158 76V0H30v-248zm33 125c57 0 124 11 124-50 0-59-68-47-124-48v98" id="aL"/><path d="M206 0h-36l-40-164L89 0H53L-1-190h32L70-26l43-164h34l41 164 42-164h31" id="aM"/><path d="M85-194c31 0 48 13 60 33l-1-100h32l1 261h-30c-2-10 0-23-3-31C134-8 116 4 85 4 32 4 16-35 15-94c0-66 23-100 70-100zm9 24c-40 0-46 34-46 75 0 40 6 74 45 74 42 0 51-32 51-76 0-42-9-74-50-73" id="aN"/><g id="h"><use transform="matrix(0.05,0,0,0.05,0,0)" xlink:href="#aL"/><use transform="matrix(0.05,0,0,0.05,12,0)" xlink:href="#ad"/><use transform="matrix(0.05,0,0,0.05,22,0)" xlink:href="#an"/><use transform="matrix(0.05,0,0,0.05,31,0)" xlink:href="#an"/><use transform="matrix(0.05,0,0,0.05,40,0)" xlink:href="#aM"/><use transform="matrix(0.05,0,0,0.05,52.95,0)" xlink:href="#ar"/><use transform="matrix(0.05,0,0,0.05,62.95,0)" xlink:href="#ah"/><use transform="matrix(0.05,0,0,0.05,68.9,0)" xlink:href="#aN"/></g><path d="M233-177c-1 41-23 64-60 70L243 0h-38l-65-103H63V0H30v-248c88 3 205-21 203 71zM63-129c60-2 137 13 137-47 0-61-80-42-137-45v92" id="aO"/><path d="M145-31C134-9 116 4 85 4 32 4 16-35 15-94c0-59 17-99 70-100 32-1 48 14 60 33 0-11-1-24 2-32h30l-1 268h-32zM93-21c41 0 51-33 51-76s-8-73-50-73c-40 0-46 35-46 75s5 74 45 74" id="aP"/><g id="i"><use transform="matrix(0.05,0,0,0.05,0,0)" xlink:href="#aO"/><use transform="matrix(0.05,0,0,0.05,12.950000000000001,0)" xlink:href="#ag"/><use transform="matrix(0.05,0,0,0.05,22.950000000000003,0)" xlink:href="#aP"/><use transform="matrix(0.05,0,0,0.05,32.95,0)" xlink:href="#aq"/><use transform="matrix(0.05,0,0,0.05,42.95,0)" xlink:href="#aJ"/><use transform="matrix(0.05,0,0,0.05,46.900000000000006,0)" xlink:href="#ah"/><use transform="matrix(0.05,0,0,0.05,52.85,0)" xlink:href="#ag"/><use transform="matrix(0.05,0,0,0.05,62.85,0)" xlink:href="#aN"/></g><path d="M108 0H70L1-190h34L89-25l56-165h34" id="aQ"/><g id="j"><use transform="matrix(0.05,0,0,0.05,0,0)" xlink:href="#ai"/><use transform="matrix(0.05,0,0,0.05,10.5,0)" xlink:href="#ai"/><use transform="matrix(0.05,0,0,0.05,21,0)" xlink:href="#aL"/><use transform="matrix(0.05,0,0,0.05,33,0)" xlink:href="#ah"/><use transform="matrix(0.05,0,0,0.05,38.95,0)" xlink:href="#ag"/><use transform="matrix(0.05,0,0,0.05,48.95,0)" xlink:href="#aQ"/><use transform="matrix(0.05,0,0,0.05,57.95,0)" xlink:href="#ag"/><use transform="matrix(0.05,0,0,0.05,67.95,0)" xlink:href="#am"/><use transform="matrix(0.05,0,0,0.05,77.95,0)" xlink:href="#al"/><use transform="matrix(0.05,0,0,0.05,82.95,0)" xlink:href="#an"/><use transform="matrix(0.05,0,0,0.05,91.95,0)" xlink:href="#ao"/><use transform="matrix(0.05,0,0,0.05,102.45,0)" xlink:href="#ao"/></g><path d="M33 0v-248h34V0H33" id="aR"/><g id="k"><use transform="matrix(0.05,0,0,0.05,0,0)" xlink:href="#ai"/><use transform="matrix(0.05,0,0,0.05,10.5,0)" xlink:href="#ai"/><use transform="matrix(0.05,0,0,0.05,21,0)" xlink:href="#aR"/><use transform="matrix(0.05,0,0,0.05,26,0)" xlink:href="#am"/><use transform="matrix(0.05,0,0,0.05,36,0)" xlink:href="#ae"/><use transform="matrix(0.05,0,0,0.05,45,0)" xlink:href="#aK"/><use transform="matrix(0.05,0,0,0.05,48.95,0)" xlink:href="#aq"/><use transform="matrix(0.05,0,0,0.05,58.95,0)" xlink:href="#aN"/><use transform="matrix(0.05,0,0,0.05,68.95,0)" xlink:href="#ag"/><use transform="matrix(0.05,0,0,0.05,78.95,0)" xlink:href="#an"/><use transform="matrix(0.05,0,0,0.05,87.95,0)" xlink:href="#ao"/><use transform="matrix(0.05,0,0,0.05,98.45,0)" xlink:href="#ao"/></g><path d="M232-93c-1 65-40 97-104 97C67 4 28-28 28-90v-158h33c8 89-33 224 67 224 102 0 64-133 71-224h33v155" id="aS"/><g id="m"><use transform="matrix(0.05,0,0,0.05,0,0)" xlink:href="#aS"/><use transform="matrix(0.05,0,0,0.05,12.950000000000001,0)" xlink:href="#an"/><use transform="matrix(0.05,0,0,0.05,21.950000000000003,0)" xlink:href="#ag"/><use transform="matrix(0.05,0,0,0.05,31.950000000000003,0)" xlink:href="#ah"/></g><g id="n"><use transform="matrix(0.05,0,0,0.05,0,0)" xlink:href="#aL"/><use transform="matrix(0.05,0,0,0.05,12,0)" xlink:href="#ag"/><use transform="matrix(0.05,0,0,0.05,22,0)" xlink:href="#ah"/><use transform="matrix(0.05,0,0,0.05,27.950000000000003,0)" xlink:href="#an"/><use transform="matrix(0.05,0,0,0.05,36.95,0)" xlink:href="#ar"/><use transform="matrix(0.05,0,0,0.05,46.95,0)" xlink:href="#am"/><use transform="matrix(0.05,0,0,0.05,56.95,0)" xlink:href="#ad"/><use transform="matrix(0.05,0,0,0.05,66.95,0)" xlink:href="#aK"/></g><path d="M30-248c118-7 216 8 213 122C240-48 200 0 122 0H30v-248zM63-27c89 8 146-16 146-99s-60-101-146-95v194" id="aT"/><g id="o"><use transform="matrix(0.05,0,0,0.05,0,0)" xlink:href="#aT"/><use transform="matrix(0.05,0,0,0.05,12.950000000000001,0)" xlink:href="#ad"/><use transform="matrix(0.05,0,0,0.05,22.950000000000003,0)" xlink:href="#al"/><use transform="matrix(0.05,0,0,0.05,27.950000000000003,0)" xlink:href="#ad"/></g><path d="M115-194c55 1 70 41 70 98S169 2 115 4C84 4 66-9 55-30l1 105H24l-1-265h31l2 30c10-21 28-34 59-34zm-8 174c40 0 45-34 45-75s-6-73-45-74c-42 0-51 32-51 76 0 43 10 73 51 73" id="aU"/><g id="p"><use transform="matrix(0.05,0,0,0.05,0,0)" xlink:href="#aT"/><use transform="matrix(0.05,0,0,0.05,12.950000000000001,0)" xlink:href="#ag"/><use transform="matrix(0.05,0,0,0.05,22.950000000000003,0)" xlink:href="#aQ"/><use transform="matrix(0.05,0,0,0.05,31.950000000000003,0)" xlink:href="#ag"/><use transform="matrix(0.05,0,0,0.05,41.95,0)" xlink:href="#aK"/><use transform="matrix(0.05,0,0,0.05,45.900000000000006,0)" xlink:href="#ar"/><use transform="matrix(0.05,0,0,0.05,55.900000000000006,0)" xlink:href="#aU"/><use transform="matrix(0.05,0,0,0.05,65.9,0)" xlink:href="#ag"/><use transform="matrix(0.05,0,0,0.05,75.9,0)" xlink:href="#ah"/></g><path d="M143 4C61 4 22-44 18-125c-5-107 100-154 193-111 17 8 29 25 37 43l-32 9c-13-25-37-40-76-40-61 0-88 39-88 99 0 61 29 100 91 101 35 0 62-11 79-27v-45h-74v-28h105v86C228-13 192 4 143 4" id="aV"/><g id="q"><use transform="matrix(0.05,0,0,0.05,0,0)" xlink:href="#aV"/><use transform="matrix(0.05,0,0,0.05,14,0)" xlink:href="#ar"/><use transform="matrix(0.05,0,0,0.05,24,0)" xlink:href="#ar"/><use transform="matrix(0.05,0,0,0.05,34,0)" xlink:href="#aI"/><use transform="matrix(0.05,0,0,0.05,44,0)" xlink:href="#aK"/><use transform="matrix(0.05,0,0,0.05,47.95,0)" xlink:href="#ag"/></g><path d="M63-220v92h138v28H63V0H30v-248h175v28H63" id="aW"/><path d="M160-131c35 5 61 23 61 61C221 17 115-2 30 0v-248c76 3 177-17 177 60 0 33-19 50-47 57zm-97-11c50-1 110 9 110-42 0-47-63-36-110-37v79zm0 115c55-2 124 14 124-45 0-56-70-42-124-44v89" id="aX"/><g id="r"><use transform="matrix(0.05,0,0,0.05,0,0)" xlink:href="#aW"/><use transform="matrix(0.05,0,0,0.05,10.950000000000001,0)" xlink:href="#aJ"/><use transform="matrix(0.05,0,0,0.05,14.9,0)" xlink:href="#ah"/><use transform="matrix(0.05,0,0,0.05,20.85,0)" xlink:href="#ag"/><use transform="matrix(0.05,0,0,0.05,30.85,0)" xlink:href="#aX"/><use transform="matrix(0.05,0,0,0.05,42.85,0)" xlink:href="#ad"/><use transform="matrix(0.05,0,0,0.05,52.85,0)" xlink:href="#an"/><use transform="matrix(0.05,0,0,0.05,61.85,0)" xlink:href="#ag"/></g><g id="s"><use transform="matrix(0.05,0,0,0.05,0,0)" xlink:href="#aX"/><use transform="matrix(0.05,0,0,0.05,12,0)" xlink:href="#ad"/><use transform="matrix(0.05,0,0,0.05,22,0)" xlink:href="#ae"/><use transform="matrix(0.05,0,0,0.05,31,0)" xlink:href="#af"/><use transform="matrix(0.05,0,0,0.05,40,0)" xlink:href="#ag"/><use transform="matrix(0.05,0,0,0.05,50,0)" xlink:href="#am"/><use transform="matrix(0.05,0,0,0.05,60,0)" xlink:href="#aN"/></g><path d="M141 0L90-78 38 0H4l68-98-65-92h35l48 74 47-74h35l-64 92 68 98h-35" id="aY"/><path d="M179-190L93 31C79 59 56 82 12 73V49c39 6 53-20 64-50L1-190h34L92-34l54-156h33" id="aZ"/><g id="t"><use transform="matrix(0.05,0,0,0.05,0,0)" xlink:href="#ap"/><use transform="matrix(0.05,0,0,0.05,12.950000000000001,0)" xlink:href="#ar"/><use transform="matrix(0.05,0,0,0.05,22.950000000000003,0)" xlink:href="#as"/><use transform="matrix(0.05,0,0,0.05,37.900000000000006,0)" xlink:href="#aU"/><use transform="matrix(0.05,0,0,0.05,47.900000000000006,0)" xlink:href="#aK"/><use transform="matrix(0.05,0,0,0.05,51.85,0)" xlink:href="#ag"/><use transform="matrix(0.05,0,0,0.05,61.85,0)" xlink:href="#aY"/><use transform="matrix(0.05,0,0,0.05,70.85000000000001,0)" xlink:href="#aJ"/><use transform="matrix(0.05,0,0,0.05,74.80000000000001,0)" xlink:href="#al"/><use transform="matrix(0.05,0,0,0.05,79.80000000000001,0)" xlink:href="#aZ"/></g><path fill="#fff" d="M30-248c87 1 191-15 191 75 0 78-77 80-158 76V0H30v-248zm33 125c57 0 124 11 124-50 0-59-68-47-124-48v98" id="ba"/><path fill="#fff" d="M135-143c-3-34-86-38-87 0 15 53 115 12 119 90S17 21 10-45l28-5c4 36 97 45 98 0-10-56-113-15-118-90-4-57 82-63 122-42 12 7 21 19 24 35" id="bb"/><path fill="#fff" d="M206 0h-36l-40-164L89 0H53L-1-190h32L70-26l43-164h34l41 164 42-164h31" id="bc"/><g id="u"><use transform="matrix(0.05,0,0,0.05,0,0)" xlink:href="#ba"/><use transform="matrix(0.05,0,0,0.05,12,0)" xlink:href="#av"/><use transform="matrix(0.05,0,0,0.05,22,0)" xlink:href="#bb"/><use transform="matrix(0.05,0,0,0.05,31,0)" xlink:href="#bb"/><use transform="matrix(0.05,0,0,0.05,40,0)" xlink:href="#bc"/><use transform="matrix(0.05,0,0,0.05,52.95,0)" xlink:href="#az"/><use transform="matrix(0.05,0,0,0.05,62.95,0)" xlink:href="#aA"/><use transform="matrix(0.05,0,0,0.05,68.9,0)" xlink:href="#aE"/></g><path fill="#fff" d="M212-179c-10-28-35-45-73-45-59 0-87 40-87 99 0 60 29 101 89 101 43 0 62-24 78-52l27 14C228-24 195 4 139 4 59 4 22-46 18-125c-6-104 99-153 187-111 19 9 31 26 39 46" id="bd"/><path fill="#fff" d="M96-169c-40 0-48 33-48 73s9 75 48 75c24 0 41-14 43-38l32 2c-6 37-31 61-74 61-59 0-76-41-82-99-10-93 101-131 147-64 4 7 5 14 7 22l-32 3c-4-21-16-35-41-35" id="be"/><path fill="#fff" d="M143 0L79-87 56-68V0H24v-261h32v163l83-92h37l-77 82L181 0h-38" id="bf"/><g id="v"><use transform="matrix(0.05,0,0,0.05,0,0)" xlink:href="#bd"/><use transform="matrix(0.05,0,0,0.05,12.950000000000001,0)" xlink:href="#aA"/><use transform="matrix(0.05,0,0,0.05,18.900000000000002,0)" xlink:href="#av"/><use transform="matrix(0.05,0,0,0.05,28.900000000000002,0)" xlink:href="#be"/><use transform="matrix(0.05,0,0,0.05,37.900000000000006,0)" xlink:href="#bf"/></g><path d="M30 0v-248h187v28H63v79h144v27H63v87h162V0H30" id="bg"/><g id="w"><use transform="matrix(0.05,0,0,0.05,0,0)" xlink:href="#ai"/><use transform="matrix(0.05,0,0,0.05,10.5,0)" xlink:href="#ai"/><use transform="matrix(0.05,0,0,0.05,21,0)" xlink:href="#bg"/><use transform="matrix(0.05,0,0,0.05,33,0)" xlink:href="#aY"/><use transform="matrix(0.05,0,0,0.05,42,0)" xlink:href="#al"/><use transform="matrix(0.05,0,0,0.05,47,0)" xlink:href="#ag"/><use transform="matrix(0.05,0,0,0.05,57,0)" xlink:href="#am"/><use transform="matrix(0.05,0,0,0.05,67,0)" xlink:href="#aN"/><use transform="matrix(0.05,0,0,0.05,77,0)" xlink:href="#an"/><use transform="matrix(0.05,0,0,0.05,86,0)" xlink:href="#ao"/><use transform="matrix(0.05,0,0,0.05,96.5,0)" xlink:href="#ao"/></g><path fill="#fff" d="M33 0v-248h34V0H33" id="bh"/><path fill="#fff" d="M24-231v-30h32v30H24zM-9 49c24 4 33-6 33-30v-209h32V24c2 40-23 58-65 49V49" id="bi"/><g id="x"><use transform="matrix(0.05,0,0,0.05,0,0)" xlink:href="#bh"/><use transform="matrix(0.05,0,0,0.05,5,0)" xlink:href="#au"/><use transform="matrix(0.05,0,0,0.05,15,0)" xlink:href="#bi"/><use transform="matrix(0.05,0,0,0.05,18.95,0)" xlink:href="#aD"/><use transform="matrix(0.05,0,0,0.05,28.950000000000003,0)" xlink:href="#be"/><use transform="matrix(0.05,0,0,0.05,37.95,0)" xlink:href="#ax"/></g><path fill="#fff" d="M185-189c-5-48-123-54-124 2 14 75 158 14 163 119 3 78-121 87-175 55-17-10-28-26-33-46l33-7c5 56 141 63 141-1 0-78-155-14-162-118-5-82 145-84 179-34 5 7 8 16 11 25" id="bj"/><path fill="#fff" d="M115-194c55 1 70 41 70 98S169 2 115 4C84 4 66-9 55-30l1 105H24l-1-265h31l2 30c10-21 28-34 59-34zm-8 174c40 0 45-34 45-75s-6-73-45-74c-42 0-51 32-51 76 0 43 10 73 51 73" id="bk"/><g id="y"><use transform="matrix(0.05,0,0,0.05,0,0)" xlink:href="#bj"/><use transform="matrix(0.05,0,0,0.05,12,0)" xlink:href="#be"/><use transform="matrix(0.05,0,0,0.05,21,0)" xlink:href="#aA"/><use transform="matrix(0.05,0,0,0.05,26.950000000000003,0)" xlink:href="#aB"/><use transform="matrix(0.05,0,0,0.05,30.899999999999995,0)" xlink:href="#bk"/><use transform="matrix(0.05,0,0,0.05,40.9,0)" xlink:href="#ax"/></g><path d="M205 0l-28-72H64L36 0H1l101-248h38L239 0h-34zm-38-99l-47-123c-12 45-31 82-46 123h93" id="bl"/><g id="z"><use transform="matrix(0.05,0,0,0.05,0,0)" xlink:href="#bl"/><use transform="matrix(0.05,0,0,0.05,12,0)" xlink:href="#ae"/><use transform="matrix(0.05,0,0,0.05,21,0)" xlink:href="#ae"/><use transform="matrix(0.05,0,0,0.05,30,0)" xlink:href="#ag"/><use transform="matrix(0.05,0,0,0.05,40,0)" xlink:href="#an"/><use transform="matrix(0.05,0,0,0.05,49,0)" xlink:href="#an"/></g><path d="M240 0l2-218c-23 76-54 145-80 218h-23L58-218 59 0H30v-248h44l77 211c21-75 51-140 76-211h43V0h-30" id="bm"/><g id="A"><use transform="matrix(0.05,0,0,0.05,0,0)" xlink:href="#bm"/><use transform="matrix(0.05,0,0,0.05,14.950000000000001,0)" xlink:href="#ad"/><use transform="matrix(0.05,0,0,0.05,24.950000000000003,0)" xlink:href="#aU"/></g><path d="M185-189c-5-48-123-54-124 2 14 75 158 14 163 119 3 78-121 87-175 55-17-10-28-26-33-46l33-7c5 56 141 63 141-1 0-78-155-14-162-118-5-82 145-84 179-34 5 7 8 16 11 25" id="bn"/><g id="B"><use transform="matrix(0.05,0,0,0.05,0,0)" xlink:href="#bn"/><use transform="matrix(0.05,0,0,0.05,12,0)" xlink:href="#ag"/><use transform="matrix(0.05,0,0,0.05,22,0)" xlink:href="#ah"/><use transform="matrix(0.05,0,0,0.05,27.950000000000003,0)" xlink:href="#aQ"/><use transform="matrix(0.05,0,0,0.05,36.95,0)" xlink:href="#aJ"/><use transform="matrix(0.05,0,0,0.05,40.900000000000006,0)" xlink:href="#ae"/><use transform="matrix(0.05,0,0,0.05,49.900000000000006,0)" xlink:href="#ag"/></g><g id="C"><use transform="matrix(0.05,0,0,0.05,0,0)" xlink:href="#aV"/><use transform="matrix(0.05,0,0,0.05,14,0)" xlink:href="#ag"/><use transform="matrix(0.05,0,0,0.05,24,0)" xlink:href="#al"/></g><g id="D"><use transform="matrix(0.05,0,0,0.05,0,0)" xlink:href="#ap"/><use transform="matrix(0.05,0,0,0.05,12.950000000000001,0)" xlink:href="#aq"/><use transform="matrix(0.05,0,0,0.05,22.950000000000003,0)" xlink:href="#ah"/><use transform="matrix(0.05,0,0,0.05,28.900000000000002,0)" xlink:href="#ah"/><use transform="matrix(0.05,0,0,0.05,34.85,0)" xlink:href="#ag"/><use transform="matrix(0.05,0,0,0.05,44.85,0)" xlink:href="#am"/><use transform="matrix(0.05,0,0,0.05,54.85,0)" xlink:href="#al"/></g><g id="E"><use transform="matrix(0.05,0,0,0.05,0,0)" xlink:href="#aH"/><use transform="matrix(0.05,0,0,0.05,10,0)" xlink:href="#ar"/><use transform="matrix(0.05,0,0,0.05,20,0)" xlink:href="#ae"/><use transform="matrix(0.05,0,0,0.05,29,0)" xlink:href="#ad"/><use transform="matrix(0.05,0,0,0.05,39,0)" xlink:href="#al"/><use transform="matrix(0.05,0,0,0.05,44,0)" xlink:href="#aJ"/><use transform="matrix(0.05,0,0,0.05,47.95,0)" xlink:href="#ar"/><use transform="matrix(0.05,0,0,0.05,57.95,0)" xlink:href="#am"/></g><g id="F"><use transform="matrix(0.05,0,0,0.05,0,0)" xlink:href="#aT"/><use transform="matrix(0.05,0,0,0.05,12.950000000000001,0)" xlink:href="#aJ"/><use transform="matrix(0.05,0,0,0.05,16.900000000000002,0)" xlink:href="#an"/><use transform="matrix(0.05,0,0,0.05,25.900000000000002,0)" xlink:href="#al"/><use transform="matrix(0.05,0,0,0.05,30.900000000000002,0)" xlink:href="#ad"/><use transform="matrix(0.05,0,0,0.05,40.900000000000006,0)" xlink:href="#am"/><use transform="matrix(0.05,0,0,0.05,50.900000000000006,0)" xlink:href="#ae"/><use transform="matrix(0.05,0,0,0.05,59.900000000000006,0)" xlink:href="#ag"/></g><g id="G"><use transform="matrix(0.05,0,0,0.05,0,0)" xlink:href="#bm"/><use transform="matrix(0.05,0,0,0.05,14.950000000000001,0)" xlink:href="#ag"/><use transform="matrix(0.05,0,0,0.05,24.950000000000003,0)" xlink:href="#ad"/><use transform="matrix(0.05,0,0,0.05,34.95,0)" xlink:href="#an"/><use transform="matrix(0.05,0,0,0.05,43.95,0)" xlink:href="#aq"/><use transform="matrix(0.05,0,0,0.05,53.95,0)" xlink:href="#ah"/><use transform="matrix(0.05,0,0,0.05,59.900000000000006,0)" xlink:href="#ag"/></g><g id="H"><use transform="matrix(0.05,0,0,0.05,0,0)" xlink:href="#ap"/><use transform="matrix(0.05,0,0,0.05,12.950000000000001,0)" xlink:href="#aK"/><use transform="matrix(0.05,0,0,0.05,16.900000000000002,0)" xlink:href="#ar"/><use transform="matrix(0.05,0,0,0.05,26.900000000000002,0)" xlink:href="#aq"/><use transform="matrix(0.05,0,0,0.05,36.900000000000006,0)" xlink:href="#aN"/></g><path d="M101-234c-31-9-42 10-38 44h38v23H63V0H32v-167H5v-23h27c-7-52 17-82 69-68v24" id="bo"/><g id="I"><use transform="matrix(0.05,0,0,0.05,0,0)" xlink:href="#aL"/><use transform="matrix(0.05,0,0,0.05,12,0)" xlink:href="#aK"/><use transform="matrix(0.05,0,0,0.05,15.949999999999998,0)" xlink:href="#ad"/><use transform="matrix(0.05,0,0,0.05,25.950000000000003,0)" xlink:href="#al"/><use transform="matrix(0.05,0,0,0.05,30.950000000000003,0)" xlink:href="#bo"/><use transform="matrix(0.05,0,0,0.05,35.95,0)" xlink:href="#ar"/><use transform="matrix(0.05,0,0,0.05,45.95,0)" xlink:href="#ah"/><use transform="matrix(0.05,0,0,0.05,51.900000000000006,0)" xlink:href="#as"/></g><g id="J"><use transform="matrix(0.05,0,0,0.05,0,0)" xlink:href="#aV"/><use transform="matrix(0.05,0,0,0.05,14,0)" xlink:href="#ag"/><use transform="matrix(0.05,0,0,0.05,24,0)" xlink:href="#ar"/><use transform="matrix(0.05,0,0,0.05,34,0)" xlink:href="#aK"/><use transform="matrix(0.05,0,0,0.05,37.95,0)" xlink:href="#ar"/><use transform="matrix(0.05,0,0,0.05,47.95,0)" xlink:href="#ae"/><use transform="matrix(0.05,0,0,0.05,56.95,0)" xlink:href="#ad"/><use transform="matrix(0.05,0,0,0.05,66.95,0)" xlink:href="#al"/><use transform="matrix(0.05,0,0,0.05,71.95,0)" xlink:href="#aJ"/><use transform="matrix(0.05,0,0,0.05,75.9,0)" xlink:href="#ar"/><use transform="matrix(0.05,0,0,0.05,85.9,0)" xlink:href="#am"/></g><path fill="#fff" d="M101-234c-31-9-42 10-38 44h38v23H63V0H32v-167H5v-23h27c-7-52 17-82 69-68v24" id="bp"/><g id="K"><use transform="matrix(0.05,0,0,0.05,0,0)" xlink:href="#bj"/><use transform="matrix(0.05,0,0,0.05,12,0)" xlink:href="#au"/><use transform="matrix(0.05,0,0,0.05,22,0)" xlink:href="#aB"/><use transform="matrix(0.05,0,0,0.05,25.950000000000003,0)" xlink:href="#bp"/><use transform="matrix(0.05,0,0,0.05,30.599999999999994,0)" xlink:href="#bp"/><use transform="matrix(0.05,0,0,0.05,35.599999999999994,0)" xlink:href="#aB"/><use transform="matrix(0.05,0,0,0.05,39.55,0)" xlink:href="#au"/><use transform="matrix(0.05,0,0,0.05,49.55,0)" xlink:href="#aG"/></g><g id="L"><use transform="matrix(0.05,0,0,0.05,0,0)" xlink:href="#bn"/><use transform="matrix(0.05,0,0,0.05,12,0)" xlink:href="#ag"/><use transform="matrix(0.05,0,0,0.05,22,0)" xlink:href="#ae"/><use transform="matrix(0.05,0,0,0.05,31,0)" xlink:href="#aq"/><use transform="matrix(0.05,0,0,0.05,41,0)" xlink:href="#ah"/><use transform="matrix(0.05,0,0,0.05,46.95,0)" xlink:href="#ag"/></g><g id="M"><use transform="matrix(0.05,0,0,0.05,0,0)" xlink:href="#aL"/><use transform="matrix(0.05,0,0,0.05,12,0)" xlink:href="#ad"/><use transform="matrix(0.05,0,0,0.05,22,0)" xlink:href="#an"/><use transform="matrix(0.05,0,0,0.05,31,0)" xlink:href="#an"/><use transform="matrix(0.05,0,0,0.05,40,0)" xlink:href="#aM"/><use transform="matrix(0.05,0,0,0.05,52.95,0)" xlink:href="#ar"/><use transform="matrix(0.05,0,0,0.05,62.95,0)" xlink:href="#ah"/><use transform="matrix(0.05,0,0,0.05,68.9,0)" xlink:href="#aN"/></g><g id="N"><use transform="matrix(0.05,0,0,0.05,0,0)" xlink:href="#aj"/><use transform="matrix(0.05,0,0,0.05,10.3,0)" xlink:href="#ah"/><use transform="matrix(0.05,0,0,0.05,16.25,0)" xlink:href="#ad"/><use transform="matrix(0.05,0,0,0.05,26.25,0)" xlink:href="#am"/><use transform="matrix(0.05,0,0,0.05,36.25,0)" xlink:href="#an"/><use transform="matrix(0.05,0,0,0.05,45.25,0)" xlink:href="#as"/><use transform="matrix(0.05,0,0,0.05,60.2,0)" xlink:href="#aJ"/><use transform="matrix(0.05,0,0,0.05,64.15,0)" xlink:href="#an"/><use transform="matrix(0.05,0,0,0.05,73.15,0)" xlink:href="#an"/><use transform="matrix(0.05,0,0,0.05,82.15,0)" xlink:href="#aJ"/><use transform="matrix(0.05,0,0,0.05,86.10000000000001,0)" xlink:href="#ar"/><use transform="matrix(0.05,0,0,0.05,96.10000000000001,0)" xlink:href="#am"/></g><g id="O"><use transform="matrix(0.05,0,0,0.05,0,0)" xlink:href="#at"/><use transform="matrix(0.05,0,0,0.05,12.950000000000001,0)" xlink:href="#au"/><use transform="matrix(0.05,0,0,0.05,22.950000000000003,0)" xlink:href="#av"/><use transform="matrix(0.05,0,0,0.05,32.95,0)" xlink:href="#aw"/><use transform="matrix(0.05,0,0,0.05,42.95,0)" xlink:href="#ax"/><use transform="matrix(0.05,0,0,0.05,47.95,0)" xlink:href="#ay"/><use transform="matrix(0.05,0,0,0.05,57.95,0)" xlink:href="#az"/><use transform="matrix(0.05,0,0,0.05,67.95,0)" xlink:href="#aA"/><use transform="matrix(0.05,0,0,0.05,73.9,0)" xlink:href="#aB"/><use transform="matrix(0.05,0,0,0.05,77.85000000000001,0)" xlink:href="#aC"/><use transform="matrix(0.05,0,0,0.05,86.85000000000001,0)" xlink:href="#aD"/><use transform="matrix(0.05,0,0,0.05,96.85000000000001,0)" xlink:href="#aE"/></g><g id="P"><use transform="matrix(0.05,0,0,0.05,0,0)" xlink:href="#aF"/><use transform="matrix(0.05,0,0,0.05,10,0)" xlink:href="#az"/><use transform="matrix(0.05,0,0,0.05,20,0)" xlink:href="#be"/><use transform="matrix(0.05,0,0,0.05,29,0)" xlink:href="#av"/><use transform="matrix(0.05,0,0,0.05,39,0)" xlink:href="#ax"/><use transform="matrix(0.05,0,0,0.05,44,0)" xlink:href="#aB"/><use transform="matrix(0.05,0,0,0.05,47.95,0)" xlink:href="#az"/><use transform="matrix(0.05,0,0,0.05,57.95,0)" xlink:href="#au"/></g><path fill="#fff" d="M205 0l-28-72H64L36 0H1l101-248h38L239 0h-34zm-38-99l-47-123c-12 45-31 82-46 123h93" id="bq"/><g id="Q"><use transform="matrix(0.05,0,0,0.05,0,0)" xlink:href="#bq"/><use transform="matrix(0.05,0,0,0.05,12,0)" xlink:href="#be"/><use transform="matrix(0.05,0,0,0.05,21,0)" xlink:href="#be"/><use transform="matrix(0.05,0,0,0.05,30,0)" xlink:href="#aD"/><use transform="matrix(0.05,0,0,0.05,40,0)" xlink:href="#bb"/><use transform="matrix(0.05,0,0,0.05,49,0)" xlink:href="#bb"/></g><g id="R"><use transform="matrix(0.05,0,0,0.05,0,0)" xlink:href="#aV"/><use transform="matrix(0.05,0,0,0.05,14,0)" xlink:href="#aL"/><use transform="matrix(0.05,0,0,0.05,26,0)" xlink:href="#bn"/></g><g id="S"><use transform="matrix(0.05,0,0,0.05,0,0)" xlink:href="#an"/><use transform="matrix(0.05,0,0,0.05,9,0)" xlink:href="#ag"/><use transform="matrix(0.05,0,0,0.05,19,0)" xlink:href="#ah"/><use transform="matrix(0.05,0,0,0.05,24.95,0)" xlink:href="#aQ"/><use transform="matrix(0.05,0,0,0.05,33.95,0)" xlink:href="#aJ"/><use transform="matrix(0.05,0,0,0.05,37.900000000000006,0)" xlink:href="#ae"/><use transform="matrix(0.05,0,0,0.05,46.900000000000006,0)" xlink:href="#ag"/><use transform="matrix(0.05,0,0,0.05,56.900000000000006,0)" xlink:href="#an"/></g><g id="T"><use transform="matrix(0.05,0,0,0.05,0,0)" xlink:href="#aS"/><use transform="matrix(0.05,0,0,0.05,12.950000000000001,0)" xlink:href="#an"/><use transform="matrix(0.05,0,0,0.05,21.950000000000003,0)" xlink:href="#aJ"/><use transform="matrix(0.05,0,0,0.05,25.900000000000002,0)" xlink:href="#am"/><use transform="matrix(0.05,0,0,0.05,35.900000000000006,0)" xlink:href="#aI"/></g><g id="U"><use transform="matrix(0.05,0,0,0.05,0,0)" xlink:href="#bn"/><use transform="matrix(0.05,0,0,0.05,12,0)" xlink:href="#ag"/><use transform="matrix(0.05,0,0,0.05,22,0)" xlink:href="#ae"/><use transform="matrix(0.05,0,0,0.05,31,0)" xlink:href="#aq"/><use transform="matrix(0.05,0,0,0.05,41,0)" xlink:href="#ah"/><use transform="matrix(0.05,0,0,0.05,46.95,0)" xlink:href="#ag"/></g><g id="V"><use transform="matrix(0.05,0,0,0.05,0,0)" xlink:href="#bl"/><use transform="matrix(0.05,0,0,0.05,12,0)" xlink:href="#aL"/><use transform="matrix(0.05,0,0,0.05,24,0)" xlink:href="#aR"/></g><path d="M194 0L95-120 63-95V0H30v-248h33v124l119-124h40L117-140 236 0h-42" id="br"/><g id="W"><use transform="matrix(0.05,0,0,0.05,0,0)" xlink:href="#br"/><use transform="matrix(0.05,0,0,0.05,12,0)" xlink:href="#ag"/><use transform="matrix(0.05,0,0,0.05,22,0)" xlink:href="#aZ"/></g><g id="X"><use transform="matrix(0.05,0,0,0.05,0,0)" xlink:href="#ap"/><use transform="matrix(0.05,0,0,0.05,12.950000000000001,0)" xlink:href="#ar"/><use transform="matrix(0.05,0,0,0.05,22.950000000000003,0)" xlink:href="#aN"/><use transform="matrix(0.05,0,0,0.05,32.95,0)" xlink:href="#ag"/></g><g id="Y"><use transform="matrix(0.05,0,0,0.05,0,0)" xlink:href="#aH"/><use transform="matrix(0.05,0,0,0.05,10,0)" xlink:href="#ar"/><use transform="matrix(0.05,0,0,0.05,20,0)" xlink:href="#aI"/></g><g id="Z"><use transform="matrix(0.05,0,0,0.05,0,0)" xlink:href="#bm"/><use transform="matrix(0.05,0,0,0.05,14.950000000000001,0)" xlink:href="#ar"/><use transform="matrix(0.05,0,0,0.05,24.950000000000003,0)" xlink:href="#am"/><use transform="matrix(0.05,0,0,0.05,34.95,0)" xlink:href="#aJ"/><use transform="matrix(0.05,0,0,0.05,38.900000000000006,0)" xlink:href="#al"/><use transform="matrix(0.05,0,0,0.05,43.900000000000006,0)" xlink:href="#ar"/><use transform="matrix(0.05,0,0,0.05,53.900000000000006,0)" xlink:href="#ah"/></g><g id="aa"><use transform="matrix(0.05,0,0,0.05,0,0)" xlink:href="#ai"/><use transform="matrix(0.05,0,0,0.05,10.5,0)" xlink:href="#ai"/><use transform="matrix(0.05,0,0,0.05,21,0)" xlink:href="#aT"/><use transform="matrix(0.05,0,0,0.05,33.95,0)" xlink:href="#ag"/><use transform="matrix(0.05,0,0,0.05,43.95,0)" xlink:href="#al"/><use transform="matrix(0.05,0,0,0.05,48.95,0)" xlink:href="#ag"/><use transform="matrix(0.05,0,0,0.05,58.95,0)" xlink:href="#ae"/><use transform="matrix(0.05,0,0,0.05,67.95,0)" xlink:href="#al"/><use transform="matrix(0.05,0,0,0.05,72.95,0)" xlink:href="#an"/><use transform="matrix(0.05,0,0,0.05,81.95,0)" xlink:href="#ao"/><use transform="matrix(0.05,0,0,0.05,92.45,0)" xlink:href="#ao"/></g><g id="ab"><use transform="matrix(0.05,0,0,0.05,0,0)" xlink:href="#ai"/><use transform="matrix(0.05,0,0,0.05,10.5,0)" xlink:href="#ai"/><use transform="matrix(0.05,0,0,0.05,21,0)" xlink:href="#aj"/><use transform="matrix(0.05,0,0,0.05,31.950000000000003,0)" xlink:href="#ak"/><use transform="matrix(0.05,0,0,0.05,41.95,0)" xlink:href="#ah"/><use transform="matrix(0.05,0,0,0.05,47.900000000000006,0)" xlink:href="#ag"/><use transform="matrix(0.05,0,0,0.05,57.900000000000006,0)" xlink:href="#ad"/><use transform="matrix(0.05,0,0,0.05,67.9,0)" xlink:href="#al"/><use transform="matrix(0.05,0,0,0.05,72.9,0)" xlink:href="#ag"/><use transform="matrix(0.05,0,0,0.05,82.9,0)" xlink:href="#am"/><use transform="matrix(0.05,0,0,0.05,92.9,0)" xlink:href="#an"/><use transform="matrix(0.05,0,0,0.05,101.9,0)" xlink:href="#ao"/><use transform="matrix(0.05,0,0,0.05,112.4,0)" xlink:href="#ao"/></g></defs></g></svg>